<?xml version="1.0" standalone="no"?><!DOCTYPE svg PUBLIC "-//W3C//DTD SVG 1.1//EN" "http://www.w3.org/Graphics/SVG/1.1/DTD/svg11.dtd"><svg t="1596527170220" class="icon" viewBox="0 0 1024 1024" version="1.1" xmlns="http://www.w3.org/2000/svg" p-id="1244" xmlns:xlink="http://www.w3.org/1999/xlink" width="128" height="128"><defs><style type="text/css"></style></defs><path d="M448 224a96 64 90 1 0 128 0 96 64 90 1 0-128 0Z" p-id="1245" fill="#bfbfbf"></path><path d="M448 800a96 64 90 1 0 128 0 96 64 90 1 0-128 0Z" p-id="1246" fill="#bfbfbf"></path><path d="M704 512a96 64 0 1 0 192 0 96 64 0 1 0-192 0Z" p-id="1247" fill="#bfbfbf"></path><path d="M128 512a96 64 0 1 0 192 0 96 64 0 1 0-192 0Z" p-id="1248" fill="#bfbfbf"></path><path d="M647.766905 374.606262a64 96 44.999 1 0 135.762133-135.766872 64 96 44.999 1 0-135.762133 135.766872Z" p-id="1249" fill="#bfbfbf"></path><path d="M240.470962 785.16061a64 96 44.999 1 0 135.762133-135.766872 64 96 44.999 1 0-135.762133 135.766872Z" p-id="1250" fill="#bfbfbf"></path><path d="M672.02313 760.903595a96 64 44.999 1 0 90.508088-90.511247 96 64 44.999 1 0-90.508088 90.511247Z" p-id="1251" fill="#bfbfbf"></path><path d="M261.468782 353.607652a96 64 44.999 1 0 90.508088-90.511247 96 64 44.999 1 0-90.508088 90.511247Z" p-id="1252" fill="#bfbfbf"></path></svg>